<svg height="356" viewBox="0 0 460 356" width="460" xmlns="http://www.w3.org/2000/svg"><g fill="none" stroke="#000" stroke-linecap="round" stroke-width="25" transform="matrix(1 0 0 -1 19 311)"><path d="m1.0000057 154.5c45.9861739-66.7467696 122.9511533-110.5 210.1352473-110.5s164.149074 43.7532304 210.135248 110.5c-45.986168 66.746766-122.95115 110.5-210.135248 110.5-87.184097 0-164.1490797-43.753234-210.135253-110.500008z" stroke-linejoin="round"/><path d="m211.25 43.5v-43"/><path d="m282.942315 52.7633091v-42.99999997" transform="matrix(.96592583 .25881905 -.25881905 .96592583 17.725751 -72.113825)"/><path d="m349.243301 80.5775589v-43" transform="matrix(.8660254 .5 -.5 .8660254 76.301715 -166.606758)"/><path d="m138.942315 53.7633091v-43" transform="matrix(.96592583 -.25881905 .25881905 .96592583 -3.622829 37.008499)"/><path d="m72.2433013 80.5775589v-43" transform="matrix(.8660254 -.5 .5 .8660254 -19.886807 43.936543)"/><path d="m15.7917045 125.091705v-43.0000005" transform="matrix(.70710678 -.70710678 .70710678 .70710678 -68.683692 41.366308)"/><path d="m406.791705 124.091705v-43.0000005" transform="matrix(.70710678 .70710678 -.70710678 .70710678 191.631244 -257.455337)"/></g></svg>