<svg height="356" viewBox="0 0 460 356" width="460" xmlns="http://www.w3.org/2000/svg"><g fill="none" transform="translate(19 26)"><g stroke="#000" stroke-linecap="round" stroke-width="25"><path d="m1.0000057 154.5c45.9861739-66.7467696 122.9511533-110.5 210.1352473-110.5s164.149074 43.7532304 210.135248 110.5c-45.986168 66.746766-122.95115 110.5-210.135248 110.5-87.184097 0-164.1490797-43.753234-210.135253-110.500008z" stroke-linejoin="round"/><path d="m211.25 43.5v-43"/><path d="m282.942315 52.7633091v-42.99999997" transform="matrix(.96592583 .25881905 -.25881905 .96592583 17.725751 -72.113825)"/><path d="m349.243301 80.5775589v-43" transform="matrix(.8660254 .5 -.5 .8660254 76.301715 -166.606758)"/><path d="m138.942315 53.7633091v-43" transform="matrix(.96592583 -.25881905 .25881905 .96592583 -3.622829 37.008499)"/><path d="m72.2433013 80.5775589v-43" transform="matrix(.8660254 -.5 .5 .8660254 -19.886807 43.936543)"/><path d="m15.7917045 125.091705v-43.0000005" transform="matrix(.70710678 -.70710678 .70710678 .70710678 -68.683692 41.366308)"/><path d="m406.791705 124.091705v-43.0000005" transform="matrix(.70710678 .70710678 -.70710678 .70710678 191.631244 -257.455337)"/><ellipse cx="211.13525" cy="154.122536" rx="108.223972" ry="106.122536" stroke-linejoin="round"/></g><path d="m155.227975 113.387908c-.109847.900709-.16637 1.817568-.16637 2.747427 0 12.592957 10.366882 22.801566 23.155079 22.801566s23.155079-10.208609 23.155079-22.801566c0-11.860297-9.195679-21.6056177-20.949172-22.699441 8.892571-4.1279809 18.82795-6.435894 29.310728-6.435894 38.009363 0 68.82204 30.342255 68.82204 67.771322 0 37.429068-30.812677 67.771323-68.82204 67.771323s-68.822041-30.342255-68.822041-67.771323c0-15.582002 5.340206-29.935775 14.316697-41.383414z" fill="#000"/></g></svg>