<?xml version="1.0" encoding="UTF-8"?>
<svg width="576px" height="576px" viewBox="0 0 576 576" version="1.1" xmlns="http://www.w3.org/2000/svg" xmlns:xlink="http://www.w3.org/1999/xlink">
    <!-- Generator: Sketch 51.2 (57519) - http://www.bohemiancoding.com/sketch -->
    <title>king_black</title>
    <desc>Created with Sketch.</desc>
    <defs></defs>
    <g id="king_black" stroke="none" stroke-width="1" fill="none" fill-rule="evenodd">
        <path d="M125.922967,437.5 L446.922967,437.5 C470.947354,437.5 490.422967,456.975613 490.422967,481 C490.422967,505.024387 470.947354,524.5 446.922967,524.5 L125.922967,524.5 C101.89858,524.5 82.422967,505.024387 82.422967,481 C82.422967,456.975613 101.89858,437.5 125.922967,437.5 Z M286.293254,305.457915 C312.483979,211.794677 360.450957,163.5 430.422967,163.5 C490.514944,163.5 522.18479,209.242787 519.058937,275.223659 C516.20294,335.508411 484.871323,401.715314 438.160704,441.121174 L434.80859,443.949074 L430.422967,443.949074 C376.027123,443.949074 376.027123,443.949074 289.21395,443.949074 C195.295072,443.949074 195.295072,443.949074 142.422967,443.949074 L137.854597,443.949074 L134.442798,440.911043 C90.369172,401.665764 59.793169,335.383333 56.3224212,275.651808 C54.541639,245.004569 60.0913856,218.03788 73.2645747,198.154243 C88.1196865,175.731909 111.812615,163.5 142.422967,163.5 C211.827156,163.5 259.692866,211.786318 286.293254,305.457915 Z M250.422967,172.5 L210.422967,172.5 L210.422967,100.5 L250.422967,100.5 L250.422967,61 L322.422967,61 L322.422967,100.5 L362.422967,100.5 L362.422967,172.650937 L322.422967,172.150937 L322.422967,244.956485 L321.049534,247.574592 C310.829465,267.056598 303.175348,287.148654 298.075146,307.868229 L286.046417,356.734939 L274.730273,307.698314 C269.975108,287.0926 262.360464,267.10416 251.868446,247.709823 L250.422967,245.037878 L250.422967,172.5 Z" id="Combined-Shape" stroke="#FFFFFF" stroke-width="24" fill="#FFFFFF"></path>
        <path d="M125.922967,449.5 L446.922967,449.5 C464.319937,449.5 478.422967,463.60303 478.422967,481 C478.422967,498.39697 464.319937,512.5 446.922967,512.5 L125.922967,512.5 C108.525997,512.5 94.422967,498.39697 94.422967,481 C94.422967,463.60303 108.525997,449.5 125.922967,449.5 Z M142.422967,431.949074 C56.2676276,355.232209 30.922967,175.5 142.422967,175.5 C216.7563,175.5 264.7563,237.166667 286.422967,360.5 C307.414737,237.166667 355.414737,175.5 430.422967,175.5 C542.935313,175.5 522.309059,354.432428 430.422967,431.949074 C377.422967,431.949074 183.922967,431.949074 142.422967,431.949074 Z M286.422967,305 C281.422967,283.333333 273.422967,262.333333 262.422967,242 L262.422967,160.5 L222.422967,160.5 L222.422967,112.5 L262.422967,112.5 L262.422967,73 L310.422967,73 L310.422967,112.5 L350.422967,112.5 L350.422967,160.5 L310.422967,160 L310.422967,242 C299.7563,262.333333 291.7563,283.333333 286.422967,305 Z" id="Combined-Shape-Copy" fill="#000000"></path>
    </g>
</svg>