<?xml version="1.0" encoding="UTF-8"?>
<svg width="576px" height="576px" viewBox="0 0 576 576" version="1.1" xmlns="http://www.w3.org/2000/svg" xmlns:xlink="http://www.w3.org/1999/xlink">
    <!-- Generator: Sketch 51.2 (57519) - http://www.bohemiancoding.com/sketch -->
    <title>king_white</title>
    <desc>Created with Sketch.</desc>
    <defs></defs>
    <g id="king_white" stroke="none" stroke-width="1" fill="none" fill-rule="evenodd">
        <path d="M127.922967,437.5 L448.922967,437.5 C472.947354,437.5 492.422967,456.975613 492.422967,481 C492.422967,505.024387 472.947354,524.5 448.922967,524.5 L127.922967,524.5 C103.89858,524.5 84.422967,505.024387 84.422967,481 C84.422967,456.975613 103.89858,437.5 127.922967,437.5 Z M288.293254,305.457915 C314.483979,211.794677 362.450957,163.5 432.422967,163.5 C492.514944,163.5 524.18479,209.242787 521.058937,275.223659 C518.20294,335.508411 486.871323,401.715314 440.160704,441.121174 L436.80859,443.949074 L432.422967,443.949074 C378.027123,443.949074 378.027123,443.949074 291.21395,443.949074 C197.295072,443.949074 197.295072,443.949074 144.422967,443.949074 L139.854597,443.949074 L136.442798,440.911043 C92.369172,401.665764 61.793169,335.383333 58.3224212,275.651808 C56.541639,245.004569 62.0913856,218.03788 75.2645747,198.154243 C90.1196865,175.731909 113.812615,163.5 144.422967,163.5 C213.827156,163.5 261.692866,211.786318 288.293254,305.457915 Z M252.422967,172.5 L212.422967,172.5 L212.422967,100.5 L252.422967,100.5 L252.422967,61 L324.422967,61 L324.422967,100.5 L364.422967,100.5 L364.422967,172.650937 L324.422967,172.150937 L324.422967,244.956485 L323.049534,247.574592 C312.829465,267.056598 305.175348,287.148654 300.075146,307.868229 L288.046417,356.734939 L276.730273,307.698314 C271.975108,287.0926 264.360464,267.10416 253.868446,247.709823 L252.422967,245.037878 L252.422967,172.5 Z" id="Combined-Shape" stroke="#FFFFFF" stroke-width="24" fill="#FFFFFF"></path>
        <path d="M127.922967,457.5 C114.944275,457.5 104.422967,468.021308 104.422967,481 C104.422967,493.978692 114.944275,504.5 127.922967,504.5 L448.922967,504.5 C461.901659,504.5 472.422967,493.978692 472.422967,481 C472.422967,468.021308 461.901659,457.5 448.922967,457.5 L127.922967,457.5 Z M147.510946,423.949074 C197.332097,423.949074 199.159851,423.949074 291.21395,423.949074 C376.421673,423.949074 377.997433,423.949074 429.46003,423.949074 C470.621823,387.979725 498.528257,328.168082 501.081344,274.277218 C502.335863,247.796672 497.218253,225.089692 486.233176,209.223241 C474.657259,192.503403 456.764418,183.5 432.422967,183.5 C362.178426,183.5 316.725003,241.895023 296.309548,361.842324 L288.547684,407.445751 L280.543629,361.884208 C259.468583,241.918563 213.996837,183.5 144.422967,183.5 C120.401839,183.5 103.018568,192.474432 91.9374666,209.200269 C81.4243204,225.068832 76.7396624,247.831981 78.2887437,274.491649 C81.3999128,328.034831 108.684813,388.05797 147.510946,423.949074 Z M288.54291,276.703111 C292.938922,264.253692 298.232774,252.032916 304.42296,240.04297 L304.422967,151.899375 L344.422967,152.399375 L344.422967,120.5 L304.422967,120.5 L304.422967,81 L272.422967,81 L272.422967,120.5 L232.422967,120.5 L232.422967,152.5 L272.422967,152.5 L272.422967,239.990428 C278.804245,251.995421 284.178302,264.233944 288.54291,276.703111 Z" id="Combined-Shape-Copy" stroke="#000000" stroke-width="16" fill="#FFFFFF"></path>
    </g>
</svg>